<svg xmlns="http://www.w3.org/2000/svg" xmlns:xlink="http://www.w3.org/1999/xlink" width="94" height="64" viewBox="0 0 94 64">
    <defs>
        <path id="a" d="M31.395 0h51.55C89.051 0 94 4.95 94 11.055c0 6.105-4.95 11.054-11.055 11.054h-51.55c-6.105 0-11.054-4.95-11.054-11.054C20.34 4.949 25.29 0 31.395 0z"/>
        <path id="b" d="M11.055 41.89h71.89C89.051 41.89 94 46.84 94 52.946 94 59.051 89.05 64 82.945 64h-71.89C4.949 64 0 59.05 0 52.945c0-6.105 4.95-11.054 11.055-11.054z"/>
        <path id="c" d="M42.64.191A11.115 11.115 0 0 0 40.583 0H11.055C4.949 0 0 4.95 0 11.055c0 6.105 4.95 11.054 11.055 11.054h22.542l8.731 32.586c.141.527.318 1.034.527 1.52C44.25 60.726 48.451 64 53.418 64h29.527C89.051 64 94 59.05 94 52.945c0-6.105-4.95-11.054-11.055-11.054H61.786l-8.98-33.515C51.528 3.608 47.322.407 42.641.19z"/>
    </defs>
    <g fill="none" fill-rule="evenodd">
        <g>
            <use fill="#EAF4FB" xlink:href="#a"/>
            <path stroke="#60AEE3" d="M31.395.5c-5.829 0-10.554 4.725-10.554 10.555 0 5.829 4.725 10.554 10.554 10.554h51.55c5.83 0 10.555-4.725 10.555-10.554C93.5 5.225 88.775.5 82.945.5h-51.55z"/>
        </g>
        <g>
            <use fill="#EAF4FB" xlink:href="#b"/>
            <path stroke="#60AEE3" d="M11.055 42.39C5.225 42.39.5 47.117.5 52.946.5 58.775 5.225 63.5 11.055 63.5h71.89c5.83 0 10.555-4.725 10.555-10.555 0-5.829-4.725-10.554-10.555-10.554h-71.89z"/>
        </g>
        <g>
            <use fill="#FFF" xlink:href="#c"/>
            <path stroke="#60AEE3" d="M42.618.69l-.07-.007C41.905.562 41.248.5 40.582.5H11.055C5.225.5.5 5.225.5 11.055c0 5.829 4.725 10.554 10.555 10.554H33.98l8.831 32.957c.134.5.302.984.522 1.502A10.559 10.559 0 0 0 53.418 63.5h29.527c5.83 0 10.555-4.725 10.555-10.555 0-5.829-4.725-10.554-10.555-10.554H61.403l-9.08-33.886A10.559 10.559 0 0 0 42.618.691z"/>
        </g>
    </g>
</svg>
