<svg xmlns="http://www.w3.org/2000/svg" xmlns:xlink="http://www.w3.org/1999/xlink" width="102" height="64" viewBox="0 0 102 64">
    <defs>
        <path id="a" d="M20.364 0H59.36c11.246 0 20.363 9.117 20.363 20.364 0 11.246-9.117 20.363-20.363 20.363H1a1 1 0 0 1-1-1V20.364C0 9.117 9.117 0 20.364 0z"/>
        <path id="b" d="M42.64 23.273h38.996C92.883 23.273 102 32.39 102 43.636 102 54.883 92.883 64 81.636 64h-58.36a1 1 0 0 1-1-1V43.636c0-11.246 9.117-20.363 20.363-20.363z"/>
    </defs>
    <g fill="none" fill-rule="evenodd">
        <g>
            <use fill="#EAF4FB" xlink:href="#a"/>
            <path stroke="#60AEE3" d="M20.364.5C9.394.5.5 9.393.5 20.364v19.363a.5.5 0 0 0 .5.5h58.36c10.97 0 19.864-8.893 19.864-19.863C79.224 9.394 70.331.5 59.361.5H20.364z"/>
        </g>
        <g transform="matrix(-1 0 0 1 124.276 0)">
            <use fill="#FFF" xlink:href="#b"/>
            <path stroke="#60AEE3" d="M42.64 23.773c-10.97 0-19.864 8.893-19.864 19.863V63a.5.5 0 0 0 .5.5h58.36c10.97 0 19.864-8.893 19.864-19.864 0-10.97-8.893-19.863-19.864-19.863H42.64z"/>
        </g>
    </g>
</svg>
