<?xml version="1.0" standalone="no"?>
<!DOCTYPE svg PUBLIC "-//W3C//DTD SVG 20010904//EN"
 "http://www.w3.org/TR/2001/REC-SVG-20010904/DTD/svg10.dtd">
<svg version="1.0" xmlns="http://www.w3.org/2000/svg"
 width="700.000000pt" height="700.000000pt" viewBox="0 0 700.000000 700.000000"
 preserveAspectRatio="xMidYMid meet">
<metadata>
Created by potrace 1.11, written by Peter Selinger 2001-2013
</metadata>
<g transform="translate(0.000000,700.000000) scale(0.100000,-0.100000)"
fill="#000000" stroke="none">
<path d="M3417 6194 c-1 -1 -56 -5 -121 -8 -66 -4 -122 -9 -125 -10 -4 -2 -31
-7 -61 -10 -46 -5 -157 -26 -222 -42 -10 -2 -28 -6 -40 -9 -12 -2 -62 -16
-112 -31 -367 -107 -738 -313 -1025 -569 -45 -39 -210 -205 -236 -236 -209
-250 -336 -451 -449 -712 -98 -225 -157 -444 -200 -737 -24 -162 -24 -526 0
-655 3 -16 6 -39 6 -50 0 -11 4 -36 9 -55 4 -19 10 -53 14 -75 3 -22 7 -47 10
-55 2 -8 6 -26 9 -40 4 -24 31 -126 56 -215 7 -22 37 -103 67 -180 290 -734
900 -1311 1650 -1560 126 -42 277 -81 348 -91 28 -3 53 -8 56 -10 23 -14 291
-37 424 -38 102 0 328 12 347 19 7 2 33 6 58 9 222 22 538 118 788 238 355
171 665 416 916 723 193 235 337 486 441 764 40 109 90 276 101 340 3 14 9 42
14 61 5 19 11 51 14 70 2 19 7 51 10 70 41 235 38 618 -8 850 -3 14 -7 43 -11
65 -8 55 -72 296 -97 364 -112 310 -250 559 -442 801 -281 352 -670 645 -1076
810 -30 12 -64 26 -75 31 -77 32 -305 97 -435 123 -66 14 -98 19 -200 31 -88
12 -395 26 -403 19z"/>
</g>
</svg>
