<?xml version="1.0" encoding="utf-8"?>
<!-- Generator: Adobe Illustrator 21.1.0, SVG Export Plug-In . SVG Version: 6.00 Build 0)  -->
<svg version="1.1" id="Layer_1" xmlns="http://www.w3.org/2000/svg" xmlns:xlink="http://www.w3.org/1999/xlink" x="0px" y="0px"
	 viewBox="0 0 100 100" style="enable-background:new 0 0 100 100;" xml:space="preserve">
<g>
	<g>
		<path d="M39.39,5.32c3.84-0.5,7.46,2.58,11.37,2.28c3.16-0.59,6.1-2.04,9.29-2.53c2.58,1.25,4.35,3.65,6.52,5.45
			c3.24,3.19,8.35,1.78,12.21,3.65c1.87,2.96,2.4,6.56,4.27,9.52c2.53,2.45,5.91,3.84,8.38,6.38c0.36,3.55-0.56,7.1-0.24,10.65
			c1.26,3.28,3.72,5.96,4.83,9.31c-1.15,3.3-3.58,5.98-4.82,9.25c-0.32,3.55,0.59,7.1,0.22,10.65c-2.46,2.54-5.83,3.92-8.36,6.37
			c-1.87,2.95-2.41,6.54-4.26,9.51c-3.17,1.39-6.77,1.11-10.04,2.15c-3.39,1.68-5.31,5.51-8.82,6.93c-3.41-0.47-6.53-2.21-9.96-2.58
			c-3.44,0.48-6.6,2.15-10.05,2.61c-3.19-1.62-5.19-4.82-8.18-6.74c-3.36-1.34-7.2-0.9-10.52-2.35c-1.92-2.98-2.39-6.68-4.38-9.62
			c-2.52-2.38-5.8-3.81-8.26-6.28c-0.4-3.55,0.53-7.1,0.21-10.65C7.57,56,5.13,53.33,3.98,50.01c1.13-3.33,3.59-6.02,4.83-9.3
			c0.31-3.55-0.61-7.09-0.23-10.63c2.48-2.51,5.83-3.94,8.36-6.39c1.89-2.95,2.41-6.57,4.29-9.53c3.33-1.43,7.16-1.02,10.52-2.33
			C34.55,9.97,36.54,7.12,39.39,5.32z M33.55,15.58c-3.08,1.06-6.37,1.25-9.56,1.83c-1.25,2.93-2.12,6.06-3.75,8.81
			c-2.31,2.26-5.19,3.81-7.79,5.7c0.15,3.29,0.71,6.6,0.35,9.88c-1.18,2.9-3,5.47-4.51,8.2c1.51,2.73,3.34,5.31,4.52,8.21
			c0.34,3.28-0.21,6.59-0.36,9.87c2.59,1.89,5.46,3.43,7.77,5.67c1.65,2.76,2.52,5.9,3.77,8.85c3.19,0.57,6.47,0.76,9.55,1.82
			c2.61,1.81,4.76,4.2,7.13,6.31c3.11-0.85,6.12-2.13,9.32-2.58c3.22,0.4,6.24,1.7,9.34,2.58c2.38-2.09,4.51-4.48,7.1-6.31
			c3.09-1.04,6.38-1.25,9.57-1.82c1.26-2.93,2.12-6.06,3.76-8.82c2.34-2.22,5.2-3.81,7.79-5.71c-0.15-3.28-0.71-6.59-0.35-9.87
			c1.18-2.9,3.01-5.47,4.52-8.2c-1.51-2.72-3.32-5.29-4.51-8.17c-0.4-3.29,0.19-6.61,0.34-9.9c-2.58-1.9-5.42-3.48-7.76-5.68
			c-1.67-2.76-2.53-5.9-3.79-8.85c-3.19-0.56-6.47-0.79-9.56-1.82c-2.6-1.83-4.73-4.22-7.11-6.32c-3.07,0.9-6.07,2.16-9.26,2.61
			c-3.22-0.47-6.26-1.74-9.39-2.6C38.3,11.37,36.16,13.76,33.55,15.58z"/>
	</g>
	<path d="M68.13,28.93c1.12,0.7,2.24,1.41,3.37,2.12c-8.15,12.67-16.32,25.33-24.49,37.99c-6.06-5.45-12.1-10.93-18.16-16.39
		c0.92-0.97,1.84-1.95,2.76-2.92c4.82,4.44,9.74,8.79,14.59,13.2C53.52,51.6,60.81,40.25,68.13,28.93z"/>
</g>
</svg>
