<?xml version="1.0" encoding="utf-8"?>
<!-- Generator: Adobe Illustrator 21.1.0, SVG Export Plug-In . SVG Version: 6.00 Build 0)  -->
<svg version="1.1" id="Layer_1" xmlns="http://www.w3.org/2000/svg" xmlns:xlink="http://www.w3.org/1999/xlink" x="0px" y="0px"
	 viewBox="0 0 100 100" style="enable-background:new 0 0 100 100;" xml:space="preserve">
<g>
	<g>
		<path d="M10.45,18.67c2.11-0.75,4.39-0.65,6.6-0.7c23.02,0.1,46.05-0.06,69.07,0.08c5.25-0.11,9.95,4.6,9.82,9.86
			c0.16,13.37-0.02,26.75,0.09,40.12c-0.05,3.19,0.25,6.7-1.71,9.45c-1.96,3.12-5.7,4.7-9.32,4.52
			c-23.72-0.03-47.44,0.07-71.16-0.06c-5.25,0.08-9.91-4.62-9.79-9.86C3.94,57.72,4.03,43.36,4,28.99
			C3.67,24.61,6.26,20.18,10.45,18.67z M9.78,23.74c-2.3,2.11-1.66,5.47-1.84,8.26c28.04,0,56.08,0,84.12,0
			c-0.18-2.78,0.45-6.14-1.85-8.26C88.64,22,86.15,22,83.99,21.98c-23.02,0.05-46.03,0-69.05,0.02C13.1,22,11.09,22.3,9.78,23.74z
			 M8,42c0.06,10.02-0.1,20.04,0.06,30.06c-0.16,3.63,3.42,6.35,6.88,5.94c21.35,0.01,42.7-0.01,64.04,0.01
			c2.93-0.05,5.91,0.23,8.81-0.31c2.84-0.79,4.45-3.78,4.2-6.61C92.03,61.39,91.98,51.7,92,42C64,42,36,42,8,42z"/>
	</g>
	<path d="M18,48c10.67,0,21.33,0,32,0c0,1.33,0,2.67,0,4c-10.67,0-21.33,0-32,0C18,50.67,18,49.33,18,48z"/>
</g>
</svg>
