<?xml version="1.0" encoding="utf-8"?>
<!-- Generator: Adobe Illustrator 21.1.0, SVG Export Plug-In . SVG Version: 6.00 Build 0)  -->
<svg version="1.1" id="Layer_1" xmlns="http://www.w3.org/2000/svg" xmlns:xlink="http://www.w3.org/1999/xlink" x="0px" y="0px"
	 viewBox="0 0 100 100" style="enable-background:new 0 0 100 100;" xml:space="preserve">
<g>
	<g>
		<path d="M35.83,13.99c4.14-3.5,8.27-8.25,14.21-7.98c5.93-0.25,9.98,4.55,14.13,8c5.03,0.049,14.73,0.16,14.73,0.16l0.93,0.96
			L80,27.91c0,0,8.58,7.52,12.79,11.36c1.57,1.07,1.14,3.14,1.24,4.76c-0.13,16,0.1,32.01-0.1,48.01c0.18,1.61-1.65,2.12-2.91,1.95
			c-27.37,0.02-54.74,0.02-82.11-0.01c-1.27,0.2-3.03-0.39-2.84-1.97c-0.19-16,0.02-32.01-0.1-48.02c0.1-1.63-0.32-3.72,1.3-4.76
			C11.5,35.45,20,27.91,20,27.91l0.17-12.72l0.86-1.01C21.03,14.18,30.918,14.059,35.83,13.99z M41.98,13.93
			c5.463,0.073,10.77,0.061,16.13,0.03c-2.29-1.97-4.88-4.13-8.11-3.95C46.8,9.82,44.23,11.95,41.98,13.93z M24,18l-0.01,35.06
			c0,0,7.51,5.98,11.34,8.89c4.41-3.35,8.72-7.97,14.69-7.94c5.99-0.14,10.22,4.64,14.65,7.95c3.82-2.89,11.32-8.83,11.32-8.83
			L76,18H24z M10.09,42.08l9.9,7.84V33.31L10.09,42.08z M80.01,33.29L80,49.99l9.94-7.88L80.01,33.29z M10.01,47.15v34.62
			l22.01-17.31L10.01,47.15z M67.98,64.5L90,81.74l-0.02-34.53L67.98,64.5z M44.11,60.17C32.68,69,9.99,86.91,9.99,86.91L10,90h80
			v-3.16c0,0-22.72-17.87-34.15-26.72C52.54,57.26,47.44,57.44,44.11,60.17z"/>
	</g>
	<path d="M31.13,28.17c12.29-0.35,24.63-0.16,36.93-0.1c2.53-0.25,2.5,4.14-0.03,3.86C56,32.04,43.95,32.06,31.91,31.92
		C29.86,32.12,29.31,28.91,31.13,28.17z"/>
	<path d="M31.11,38.17c7.63-0.34,15.3-0.18,22.95-0.1c2.57-0.25,2.49,4.19-0.09,3.87c-7.31,0.11-14.63,0.11-21.94,0
		C29.92,42.19,29.26,39,31.11,38.17z"/>
</g>
</svg>
