<?xml version="1.0" encoding="utf-8"?>
<!-- Generator: Adobe Illustrator 21.1.0, SVG Export Plug-In . SVG Version: 6.00 Build 0)  -->
<svg version="1.1" id="Layer_1" xmlns="http://www.w3.org/2000/svg" xmlns:xlink="http://www.w3.org/1999/xlink" x="0px" y="0px"
	 viewBox="0 0 100 100" style="enable-background:new 0 0 100 100;" xml:space="preserve">
<g>
	<path d="M47.45,6.58c6.67-1.39,13.85-0.19,19.64,3.41c7.28,4.4,12.24,12.43,12.79,20.93c0.46,8.87-0.75,18.4-6.37,25.62
		c-5.1,6.59-10.77,12.8-14.92,20.08c-3.51,5.61-5.55,13-12.23,15.73c-9.131,4.69-21.28-1.056-23.735-10.939
		c-0.01-0.041-0.018-0.08-0.026-0.121c-0.371-1.996-1.477-5.016,0.561-6.2c2.581-0.978,2.8,2.21,3.12,3.95
		c0.82,6.53,7.36,11.58,13.88,10.89c4.5-0.3,8.67-3.15,10.57-7.25c3.48-6.91,7.5-13.58,12.41-19.59c3.58-4.73,8.02-8.95,10.37-14.49
		c2.18-5.24,2.56-11.03,2.43-16.63c-0.25-9.34-6.89-18.05-15.8-20.82c-9.2-3.17-20.1,0.38-25.72,8.3c-3.01,3.9-4.16,8.78-4.55,13.6
		c0.122,1.855-2.151,2.477-3.305,1.411c-0.291-0.269-0.427-0.673-0.449-1.069C25.433,20.857,35.195,8.938,47.45,6.58z"/>
	<path d="M49.38,16.42c10.08-2.58,20.944,6.193,20.644,16.533c0.025,2.012-3.214,2.967-3.674,0.877c-0.68-3.81-1.57-7.92-4.75-10.48
		c-5.04-4.82-13.79-4.23-18.26,1.06c-2.99,2.97-3.12,7.33-3.88,11.21c-0.736,3.145-4.403,4.893-5.214,7.846
		c-0.206,0.749,0.118,1.542,0.781,1.947c2.795,1.707,6.335,3.046,6.873,6.657c0.84,3.79-3.09,5.49-5.53,7.35
		c-2.62,1.79-3.12,5.78-1.12,8.22c1.42,2.01,4.138,1.96,6.14,3.02c1.434,0.846,0.418,3.423-1.484,3.387
		C33.118,74.053,27.77,66.14,30.92,59.99c1.126-3.046,4.226-4.289,6.445-6.327c0.486-0.446,0.599-1.194,0.221-1.735
		c-1.015-1.453-3.121-1.977-4.546-2.988c-2.21-1.04-3.39-3.67-2.89-6.03c0.71-4.3,6.02-6.29,5.91-10.89
		C36.46,24.61,42.15,17.98,49.38,16.42z"/>
</g>
</svg>
