<?xml version="1.0" encoding="utf-8"?>
<!-- Generator: Adobe Illustrator 21.1.0, SVG Export Plug-In . SVG Version: 6.00 Build 0)  -->
<svg version="1.1" id="Layer_1" xmlns="http://www.w3.org/2000/svg" xmlns:xlink="http://www.w3.org/1999/xlink" x="0px" y="0px"
	 viewBox="0 0 100 100" style="enable-background:new 0 0 100 100;" xml:space="preserve">
<g>
	<g>
		<path d="M66.41,4.68c5.46-2.29,12.29,1.4,13.34,7.22c1.22,5.06-2.22,10.61-7.29,11.77C67.56,25.02,62,22,60.52,17.14
			C58.78,12.27,61.55,6.42,66.41,4.68z M68.24,8.26c-4.21,1.07-5.67,7.01-2.52,9.95c2.9,3.19,8.84,1.82,9.98-2.36
			C77.36,11.47,72.65,6.67,68.24,8.26z"/>
	</g>
	<g>
		<path d="M38.18,23.21c2.47-2.78,5.85-5.51,9.8-5.15c2.45,0.23,3.64,2.59,4.3,4.66c2.6-0.69,5.46-1.11,7.96,0.18
			c4.59,1.97,6.99,7.73,5.09,12.36c-1.3,2.87-3.45,5.22-5.32,7.72c3.79,0.89,8.84,0.2,11.16,3.99c2.17,3.4-0.18,8.4-4.16,8.93
			c-4.09,0.05-12.11-1.6-12.11-1.6s5.71,7.58,8.18,11.63c1.41,2.3,0.73,5.24-0.89,7.24c-4.58,6.14-9.12,12.31-13.81,18.36
			c-2.28,3.09-7.15,3.57-9.99,0.99c-2.96-2.39-3.09-7.1-0.7-9.95c3.38-4.61,10.33-13.7,10.33-13.7s-8.38-10.19-12.3-15.49
			c-2.37-3.05-1.85-7.16-0.38-10.47c-2.59-2.08-7.83-6.15-7.83-6.15S34.51,27.63,38.18,23.21z M32.695,35.705l5.015,3.935
			c0,0,5.486-7.384,8.595-11.516c0.302-0.402,0.551-0.831,0.736-1.298c0.299-0.756,0.57-1.668,0.764-2.65
			c0.232-1.176-0.882-2.306-2.024-1.942c-0.616,0.197-1.225,0.456-1.813,0.828c-0.899,0.569-1.932,1.255-2.625,2.063
			C37.895,29.142,32.695,35.705,32.695,35.705z M50.65,29.6c-3.64,5.31-7.81,10.25-11.59,15.46c-1.5,1.88-1.29,4.67,0.23,6.48
			c4.53,5.77,13.79,17.16,13.79,17.16s-7.55,10.09-11.37,15.1c-0.83,1.23-2.05,2.55-1.65,4.17c0.39,2.3,3.8,3.1,5.11,1.12
			c4.48-5.58,8.57-11.47,12.98-17.12c0.8-1.25,2.47-2.83,1.29-4.37c-2.78-4.19-6.685-9.376-9.565-13.496
			c-1.583-0.667-4.25-1.313-5.625-4.313c-0.917-3.083,0.72-5.802,2.47-7.942c2.491-3.016,4.554-6.387,7.189-9.27
			c0.813-0.889,2.132-0.833,2.9,0.095l0.034,0.041c0.451,0.557,0.47,1.361,0.108,1.979c-2.44,4.167-5.92,7.628-8.521,11.698
			c-0.405,0.633-0.437,1.486,0.027,2.078c0.672,0.857,1.948,1.079,3.033,1.25c4.84,0.69,9.64,1.75,14.51,2.18
			c2.06,0.42,2.86-3.11,0.82-3.65c-3.727-1.111-7.739-0.928-11.437-2.16c-0.989-0.33-1.409-1.533-0.856-2.418
			c2.167-3.468,5.291-6.268,7.113-9.952c1.48-3.63-1.73-7.98-5.61-7.72C53.63,25.96,51.87,27.74,50.65,29.6z"/>
	</g>
	<path d="M24.443,41.06c0.892-1.052,2.666-0.856,3.149,0.436c0.202,0.54,0.157,1.153-0.282,1.674c-3.122,4.018-5.99,8.09-9.19,11.96
		c-0.619,0.823-1.582,0.761-2.346,0.26c-0.852-0.558-1.121-2.003-0.524-2.828c1.722-2.381,4.02-5.313,4.02-5.313
		S22.384,43.49,24.443,41.06z"/>
	<path d="M26.95,48.859c1.529-2.042,4.8,0.162,3.3,2.081c-2.208,2.914-4.313,5.664-6.64,8.58c-1.23,1.7-4.18-0.31-3.11-2.08
		C22.583,54.604,24.864,51.462,26.95,48.859z"/>
</g>
</svg>
