<?xml version="1.0" encoding="utf-8"?>
<!-- Generator: Adobe Illustrator 21.1.0, SVG Export Plug-In . SVG Version: 6.00 Build 0)  -->
<svg version="1.1" id="Layer_1" xmlns="http://www.w3.org/2000/svg" xmlns:xlink="http://www.w3.org/1999/xlink" x="0px" y="0px"
	 viewBox="0 0 102.353 100" style="enable-background:new 0 0 102.353 100;" xml:space="preserve">
<g>
	<g>
		<path d="M74.963,5.274c2.52,0.261,1.391,0.144,3.911,0.405c-0.33,4.748-0.822,10.203-4.799,13.41
			c-4.76,3.96-11.48,2.68-16.83,5.19c-2.95,1.4-3.55,4.85-4.38,7.67c13.38,0.17,26.76-0.09,40.13,0.11
			c2.199-0.073,4.146,0.882,5.588,2.378c1.567,1.625,2.332,3.864,2.332,6.121v38.713c0,1.819-0.434,3.64-1.426,5.164
			c-0.932,1.431-2.24,2.58-3.944,3.094c-2.81,0.71-5.75,0.46-8.62,0.49c-26.03-0.1-52.07,0.09-78.09-0.08
			c-2.199,0.067-4.149-0.887-5.592-2.381c-1.564-1.619-2.328-3.852-2.328-6.103l0-38.958c0-1.951,0.557-3.9,1.769-5.429
			c1.464-1.849,3.646-3.077,6.121-3.008c13.36-0.18,26.74,0.02,40.1-0.07c0.77-3.68,1.59-7.8,4.84-10.15
			c4.81-3.85,11.52-2.47,16.81-5.14C74.558,14.435,74.463,9.206,74.963,5.274z M7.245,36.36c-1.81,0.73-2.46,2.77-2.33,4.57v37.218
			c0,0.725,0.051,1.454,0.216,2.16c0.084,0.343,0.21,0.681,0.373,1.005c0.841,1.669,2.653,2.624,4.522,2.633
			C37.363,84.067,64.709,83.97,92.045,84c2.33,0.31,4.9-1.35,4.81-3.87c0.11-13.39,0.09-26.78,0.01-40.17
			c0.14-2.58-2.48-4.3-4.86-3.96c-26.03-0.01-52.06,0.03-78.08-0.02C11.705,36.05,9.405,35.75,7.245,36.36z"/>
	</g>
	<path d="M10.915,44c2.67,0,5.33,0,8,0c0,2.67,0,5.33,0,8c-2.67,0-5.33,0-8,0C10.915,49.33,10.915,46.67,10.915,44z"/>
	<path d="M22.915,44c2.67,0,5.33,0,8,0c0,2.67,0,5.33,0,8c-2.67,0-5.33,0-8,0C22.915,49.33,22.915,46.67,22.915,44z"/>
	<path d="M34.915,44c2.67,0,5.33,0,8,0c0,2.67,0,5.33,0,8c-2.67,0-5.33,0-8,0C34.915,49.33,34.915,46.67,34.915,44z"/>
	<path d="M46.915,44c2.67,0,5.33,0,8,0c0,2.67,0,5.33,0,8c-2.67,0-5.33,0-8,0C46.915,49.33,46.915,46.67,46.915,44z"/>
	<path d="M58.915,44c2.67,0,5.33,0,8,0c0,2.67,0,5.33,0,8c-2.67,0-5.33,0-8,0C58.915,49.33,58.915,46.67,58.915,44z"/>
	<path d="M70.915,44c2.67,0,5.33,0,8,0c0,2.67,0,5.33,0,8c-2.67,0-5.33,0-8,0C70.915,49.33,70.915,46.67,70.915,44z"/>
	<path d="M82.915,44c2.67,0,5.33,0,8,0c0,2.67,0,5.33,0,8c-2.67,0-5.33,0-8,0C82.915,49.33,82.915,46.67,82.915,44z"/>
	<path d="M10.915,56c4.67,0,9.33,0,14,0c0,2.67,0,5.33,0,8c-4.67,0-9.33,0-14,0C10.915,61.33,10.915,58.67,10.915,56z"/>
	<path d="M28.915,56c2.67,0,5.33,0,8,0c0,2.67,0,5.33,0,8c-2.67,0-5.33,0-8,0C28.915,61.33,28.915,58.67,28.915,56z"/>
	<path d="M40.915,56c2.67,0,5.33,0,8,0c0,2.67,0,5.33,0,8c-2.67,0-5.33,0-8,0C40.915,61.33,40.915,58.67,40.915,56z"/>
	<path d="M52.915,56c2.67,0,5.33,0,8,0c0,2.67,0,5.33,0,8c-2.67,0-5.33,0-8,0C52.915,61.33,52.915,58.67,52.915,56z"/>
	<path d="M64.915,56c2.67,0,5.33,0,8,0c0,2.67,0,5.33,0,8c-2.67,0-5.33,0-8,0C64.915,61.33,64.915,58.67,64.915,56z"/>
	<path d="M76.915,56c4.67,0,9.33,0,14,0c0,2.67,0,5.33,0,8c-4.67,0-9.33,0-14,0C76.915,61.33,76.915,58.67,76.915,56z"/>
	<path d="M10.915,68c2.67,0,5.33,0,8,0c0,2.67,0,5.33,0,8c-2.67,0-5.33,0-8,0C10.915,73.33,10.915,70.67,10.915,68z"/>
	<path d="M22.915,68c2.67,0,5.33,0,8,0c0,2.67,0,5.33,0,8c-2.67,0-5.33,0-8,0C22.915,73.33,22.915,70.67,22.915,68z"/>
	<path d="M34.915,68c10.67,0,21.33,0,32,0c0,2.67,0,5.33,0,8c-10.67,0-21.33,0-32,0C34.915,73.33,34.915,70.67,34.915,68z"/>
	<path d="M70.915,68c2.67,0,5.33,0,8,0c0,2.67,0,5.33,0,8c-2.67,0-5.33,0-8,0C70.915,73.33,70.915,70.67,70.915,68z"/>
	<path d="M82.915,68c2.67,0,5.33,0,8,0c0,2.67,0,5.33,0,8c-2.67,0-5.33,0-8,0C82.915,73.33,82.915,70.67,82.915,68z"/>
</g>
</svg>
