<?xml version="1.0" encoding="utf-8"?>
<!-- Generator: Adobe Illustrator 21.1.0, SVG Export Plug-In . SVG Version: 6.00 Build 0)  -->
<svg version="1.1" id="Layer_1" xmlns="http://www.w3.org/2000/svg" xmlns:xlink="http://www.w3.org/1999/xlink" x="0px" y="0px"
	 viewBox="0 0 100 100.319" style="enable-background:new 0 0 100 100.319;" xml:space="preserve">
<g>
	<g>
		<path d="M48.851,0.319l2.335,0c0.715,0,1.433,0.027,2.14,0.136c9.032,1.388,17.037,8.624,18.384,17.804
			c0.73,6.33,0.18,12.71,0.34,19.06c-0.14,6.3,0.83,13.08-2.22,18.88c-3.88,8.08-13.11,13.04-21.99,12.04
			c-9.84-0.73-18.74-8.91-19.67-18.84c-0.53-6.33-0.08-12.7-0.22-19.05c0.08-5.98-0.71-12.38,2.19-17.89
			c2.826-5.976,8.575-10.113,14.916-11.704C46.295,0.444,47.573,0.319,48.851,0.319z M38.29,8.589c-4.15,3.3-6.16,8.52-6.41,13.7
			c4.01,0.12,8.04-0.2,12.04,0.21c1.42,0.76,1.43,2.94-0.05,3.65c-3.92,0.4-11.82,0.17-11.82,0.17v4c0,0,7.92-0.24,11.86,0.19
			c1.44,0.73,1.45,2.97-0.06,3.63c-3.92,0.42-11.8,0.18-11.8,0.18v4c0,0,7.87-0.23,11.79,0.17c1.54,0.68,1.55,3.03-0.03,3.66
			c-3.91,0.41-7.86,0.08-11.78,0.17c0.03,3.09-0.15,6.26,0.69,9.26c1.75,6.16,7.15,10.98,13.38,12.27
			c7.06,1.6,14.93-1.43,18.92-7.49c2.96-4.06,3.08-9.23,2.95-14.04c-3.94-0.09-7.9,0.24-11.83-0.17c-1.5-0.7-1.5-2.92-0.04-3.65
			c3.93-0.42,11.85-0.18,11.85-0.18v-4c0,0-7.88,0.24-11.8-0.18c-1.52-0.66-1.49-2.88-0.07-3.64c3.94-0.42,7.91-0.1,11.87-0.18
			c0-1.33,0-4,0-4s-7.92,0.23-11.87-0.18c-1.42-0.75-1.46-3,0.08-3.64c3.97-0.42,7.97-0.08,11.95-0.2
			c-0.28-4.7-1.83-9.46-5.34-12.73C56.42,3.079,45.14,2.649,38.29,8.589z"/>
	</g>
	<g>
		<path d="M18.37,36.389c-0.042-2.132,3.208-2.132,3.232-0.103c0.219,5.829-0.502,10.943,0.938,16.683
			c2.16,9.06,9.08,16.8,17.86,19.91c8.24,3.05,17.9,1.9,25.18-3.02c7.21-4.74,12.08-12.92,12.56-21.55
			c0.42-4.26,0.152-7.532,0.273-11.967c0.107-1.999,3.253-1.999,3.197,0.057c0.43,8.36,0.6,17.31-3.65,24.84
			c-4.36,8.43-12.72,14.24-21.88,16.35c-0.01,4.24,0,12.73,0,12.73s8.779-0.033,14.026,0.408c1.897,0.159,3.629,1.207,4.548,2.874
			c1.078,1.954,1.28,4.505,1.256,6.719c0,0-34.71,0.019-52.122,0c0.028-2.503,0.362-5.525,1.923-7.555
			c0.921-1.198,2.345-1.894,3.85-2.023c5.658-0.484,14.358-0.422,14.358-0.422s0.01-8.48,0-12.73c-9.38-2.14-17.91-8.22-22.2-16.94
			C17.72,53.229,18.19,44.569,18.37,36.389z M48.08,78.009v12.24h3.84v-12.24H48.08z M27.77,96.099
			c14.787,0.102,29.477,0.055,44.2,0.02c-1.12-0.97-1.962-1.839-3.93-1.8c-12.03,0.02-24.06,0.05-36.1-0.01
			C29.999,94.28,28.99,95.149,27.77,96.099z"/>
	</g>
</g>
</svg>
