<?xml version="1.0" encoding="utf-8"?>
<!-- Generator: Adobe Illustrator 21.1.0, SVG Export Plug-In . SVG Version: 6.00 Build 0)  -->
<svg version="1.1" id="Layer_1" xmlns="http://www.w3.org/2000/svg" xmlns:xlink="http://www.w3.org/1999/xlink" x="0px" y="0px"
	 viewBox="0 0 100 100" style="enable-background:new 0 0 100 100;" xml:space="preserve">
<g>
	<path d="M23.32,26.63c-3.98-8.5,1.4-19.67,10.8-21.19c8.99-2.06,17.93,5.63,17.98,14.69c-1.31,0-2.61,0-3.92,0
		c-0.49-3.81-2.22-7.68-5.75-9.56c-5-2.97-12.11-1.08-14.91,4.04c-1.96,3.11-1.7,6.97-0.59,10.32
		C25.73,25.5,24.52,26.06,23.32,26.63z"/>
	<g>
		<path d="M59.3,24.95c3.1-5.56,8.58-9.77,14.88-10.94c1.945-0.239,2.424,1.469,2.02,2.88c-1.35,3.98-2.71,7.98-2.98,12.2
			c6.756,2.781,11.777,8.831,13.458,15.89c0.135,0.566,0.622,0.975,1.204,0.972c3.178-0.018,7.11,0.411,7.878,4.078
			c0.37,4.23,0.55,8.58-0.14,12.78c-1.081,3.434-4.902,3.6-8.007,3.609c-0.565,0.002-1.07,0.322-1.335,0.82
			c-2.652,4.996-6.487,9.334-11.439,12.151c1.1,2.86,2.39,6.72-0.52,8.98c-3.13,1.89-6.69,3.32-10.32,3.76
			c-3.96-0.16-5.12-4.43-6.28-7.46c-6.1,0.65-12.31,0.87-18.34-0.47c-1.22,3.15-2.27,7.68-6.4,7.93
			c-3.64-0.42-7.113-1.95-10.34-3.74c-3.6-2.97-0.89-7.65,0.34-11.12c-4.45-3.67-8.54-8.1-10.45-13.65
			c-1.83-5.03-1.28-10.5-0.5-15.69C8,46.17,4,42.78,4.03,38c-0.212-3.683,2.205-8.645,6.243-8.812
			c0.334-0.014,0.665,0.127,0.913,0.353c1.7,1.546-0.395,3.205-1.827,4.528c-0.474,0.438-0.864,0.972-1.085,1.579
			c-1.3,3.572,1.577,7.095,4.875,8.473c2.6-6.84,8.06-12.17,14.55-15.38C37.33,23.63,48.74,23,59.3,24.95z M63.69,25.65
			c-1.1,1.67-1.836,4.038-4.68,3.39c-11.96-2.58-25.38-0.93-35.13,6.91c-7.08,5.44-9.48,15.12-8.3,23.65
			c1,5.91,5.19,10.55,9.59,14.31c3.219,2.705,0.771,6.76-0.372,10.09c-0.203,0.593,0.086,1.248,0.66,1.499
			c2.326,1.019,4.706,1.9,7.096,2.764c0.321,0.116,0.695,0.011,0.876-0.279c1.686-2.706,1.766-7.245,5.44-7.764
			c4.69,0.48,9.37,1.47,14.1,0.8c2.58,0.06,5.99-1.34,7.87,1.1c0.952,1.808,1.66,3.739,2.591,5.558
			c0.231,0.452,0.775,0.652,1.252,0.479c2.338-0.851,4.67-1.717,6.949-2.72c0.455-0.2,0.696-0.719,0.539-1.192
			c-0.67-2.012-1.617-4.059-1.222-6.176c1.08-2.25,3.68-3.1,5.47-4.69c3.39-2.4,5-6.32,7.38-9.57
			c1.892-1.804,4.667-1.458,7.144-1.588c0.538-0.028,0.968-0.458,0.985-0.997c0.1-3.342,0.144-6.69-0.022-10.031
			c-0.029-0.585-0.512-1.046-1.098-1.06c-2.062-0.049-4.377,0.165-6.113-0.855c-0.677-0.397-1.163-1.06-1.425-1.8
			c-1.24-3.505-2.1-7.274-4.85-9.978c-2.057-2.617-5.238-3.695-7.985-5.342c-0.608-0.365-0.984-1.018-1.064-1.723
			c-0.435-3.839,0.905-7.701,1.759-11.415C68.23,20.67,65.32,22.63,63.69,25.65z"/>
	</g>
	<path d="M71.46,46.51c2.67-1.34,5.99,1.48,5.24,4.32c-0.56,2.79-4.41,4.07-6.38,1.91C68.29,51,69.03,47.46,71.46,46.51z"/>
</g>
</svg>
