<?xml version="1.0" encoding="utf-8"?>
<!-- Generator: Adobe Illustrator 21.1.0, SVG Export Plug-In . SVG Version: 6.00 Build 0)  -->
<svg version="1.1" id="Layer_1" xmlns="http://www.w3.org/2000/svg" xmlns:xlink="http://www.w3.org/1999/xlink" x="0px" y="0px"
	 viewBox="0 0 100 100.938" style="enable-background:new 0 0 100 100.938;" xml:space="preserve">
<g>
	<g>
		<path d="M49.886,0.937l0.247,0c1.02,0,2.045,0.176,2.968,0.613c2.232,1.056,3.822,3.087,4.869,5.357
			c8.03,0.13,16.06-0.11,24.08,0.09c3.64-0.17,6.32,3.46,5.95,6.89c0,25.38,0,50.76,0,76.13c0.043,3.931-2.959,6.964-6.97,6.92
			c-20.7,0-41.41,0-62.12,0c-3.279,0.044-6.946-2.29-6.85-5.94c-0.16-24.34,0.02-48.68-0.09-73.02c0.02-2.28-0.12-4.59,0.33-6.85
			c0.8-2.36,3.14-4.21,5.68-4.13c8.01-0.19,16.03,0.04,24.05-0.09c0.98-2.134,2.438-4.02,4.445-5.145
			C47.51,1.182,48.7,0.937,49.886,0.937z M47.19,6.088c-0.842,0.829-1.367,1.935-1.781,3.042c-0.389,1.039-1.388,1.725-2.497,1.745
			c-1.637,0.029-3.266,0.078-4.911,0.063v4h24v-4c-1.656,0.015-3.116,0.058-4.702,0.098c-1.102,0.028-2.113-0.623-2.535-1.641
			c-0.486-1.172-1.093-2.431-1.922-3.267C51.38,4.557,48.67,4.548,47.19,6.088z M17.09,11.087c-1.39,0.79-1,2.46-1.11,3.78
			c0.09,25.39-0.09,50.78,0.09,76.17c-0.12,2.14,2.52,1.91,3.96,1.92c20.67-0.09,40.956,0.083,61.626-0.087
			c2.253-0.013,2.44-1.662,2.438-2.886c0.02-25.38-0.084-50.777-0.114-76.147c0.19-1.24-0.37-3.03-1.93-2.84
			c-5.35-0.18-10.7,0-16.05-0.06c-0.056,1.761-0.053,3.663-0.059,5.398c-0.005,1.346-1.075,2.439-2.42,2.478
			c-7.177,0.207-22.878,0.171-27.843,0.169c-0.823,0-1.494-0.652-1.522-1.475c-0.072-2.124-0.172-4.736-0.156-6.57
			C28.37,11.047,22.71,10.717,17.09,11.087z"/>
	</g>
	<path d="M70.771,35.646c1.2-1.83,4.289,0.382,2.949,2.122c-3.153,4.764-6.345,9.378-9.581,13.817
		c-2.618-2.459-5.118-4.938-7.869-7.727c-1.11-1.56,1.06-3.73,2.63-2.67c1.642,1.583,3.21,3.05,4.78,4.61
		C66.06,42.428,68.458,38.958,70.771,35.646z"/>
	<path d="M26.271,41.873c0.272-0.499,0.823-0.785,1.391-0.808c6.798-0.281,13.632-0.145,20.438-0.048c2.51-0.25,2.44,4.18-0.08,3.85
		c-6.67,0.13-13.476,0.117-20.146-0.003C26.213,44.885,25.599,43.106,26.271,41.873z"/>
	<path d="M56.21,63.798c-0.92-1.63,1.13-3.66,2.71-2.59c1.85,1.47,3.41,3.26,5.1,4.9c1.58-1.589,3.089-3.265,4.815-4.711
		c0.501-0.419,1.196-0.593,1.807-0.362c1.018,0.384,1.729,1.606,1.188,2.703c-1.5,1.89-3.31,3.5-5.01,5.2
		c1.204,1.749,4.22,3.367,4.811,5.433c0.363,1.267-0.647,2.427-1.947,2.212c-2.183-0.361-4.161-3.715-5.59-5.16
		c-1.71,1.67-3.374,3.806-5.234,5.316c-1.58,0.89-3.53-1.03-2.68-2.61c1.49-1.88,3.3-3.49,4.99-5.19
		C59.51,67.228,57.7,65.668,56.21,63.798z"/>
	<path d="M26.614,67.429c0.256-0.242,0.614-0.347,0.966-0.366c6.164-0.33,12.347-0.018,18.52-0.135
		c1.353,0.018,3.147-0.402,3.794,1.21c0.471,1.176-0.294,2.776-1.854,2.73c-6.67,0.13-13.35,0.12-20.02,0.01
		C26.14,71.118,25.419,68.556,26.614,67.429z"/>
</g>
</svg>
