<?xml version="1.0" encoding="utf-8"?>
<!-- Generator: Adobe Illustrator 21.1.0, SVG Export Plug-In . SVG Version: 6.00 Build 0)  -->
<svg version="1.1" id="Layer_1" xmlns="http://www.w3.org/2000/svg" xmlns:xlink="http://www.w3.org/1999/xlink" x="0px" y="0px"
	 viewBox="0 0 100 100" style="enable-background:new 0 0 100 100;" xml:space="preserve">
<g>
	<g>
		<path d="M49.92,2.71c1.65,6.42,2.43,13.04,3.78,19.52c0.68,0.33,2.05,0.98,2.73,1.3c2.64-4.8,5.73-9.55,10.19-12.86
			c1.13-0.878,2.526-0.899,3.23,0.52c1.88,4.58,2.96,9.9,1.24,14.7c-0.77,2.32-1.96,4.46-3.07,6.63c2.67,4.62,2.32,10.09,0.3,14.88
			c0.53,1.34,1.06,2.68,1.6,4.02c5.38-0.95,10.84-1.5,16.31-1.43c-0.63,5.91-1.379,12.017-1.949,17.947
			c0.672,0.234,1.289,0.473,1.933,0.862c1.163,0.703,1.861,1.972,1.873,3.331c0.024,2.73,0.066,5.559-0.132,8.338
			c-0.109,1.525-1.391,2.832-2.861,3.252c-0.885,0.252-1.851,0.356-2.694,0.52c-0.21,1.92-0.4,3.83-0.59,5.75
			c-10.89-0.08-21.53,2.62-31.78,6.09c-10.27-3.44-20.93-6.16-31.83-6.09c-0.2-1.92-0.4-3.83-0.61-5.75
			c-2.45-0.14-5.223-0.656-5.613-4.197C11.763,76.65,10.431,69.69,15.72,67.65c-0.63-5.89-1.32-11.77-1.95-17.66
			c5.47-0.07,10.93,0.49,16.31,1.43c0.53-1.36,1.07-2.71,1.6-4.07c-2.1-4.82-2.27-10.3,0.29-14.98c-3.32-5.15-5.07-11.49-3.09-17.49
			c0.62-1.79,1.05-5.79,3.86-4.63c5.05,3.47,8.41,8.79,11.24,14.11c0.906-0.725,1.426-1.016,2.176-1.579
			C47.426,16.411,48.6,9.08,49.92,2.71z M32.8,15.48c-2,5.86,0.3,11.83,3.76,16.6c-0.9,2.26-2.13,4.42-2.58,6.83
			c-0.17,3.18,1.23,6.14,2.1,9.13c-0.73,1.4-1.44,2.82-2.14,4.24c5.5,1.36,10.87,3.22,16.06,5.48c5.18-2.3,10.58-4.03,16.05-5.48
			c-0.7-1.43-1.4-2.86-2.14-4.27c0.88-2.95,2.24-5.88,2.12-9.02c-0.46-2.44-1.69-4.64-2.58-6.94
			c3.256-4.753,6.035-10.643,3.657-16.498c-2.762,2.481-4.821,5.644-6.577,8.878c-1.16,1.97-0.16,4.59-1.67,6.39
			c-2.88,3.49-7.79,4.71-10.3,8.59c-0.9,1.14-1.48,3.18-3.35,2.47c-3.12-2.64-5.84-6.64-5.01-10.92c0.06-1.43,0.93-2.93,0.33-4.33
			C38.66,22.49,36.11,18.61,32.8,15.48z M44.98,28.95c-1.74,2.29-0.72,5.21,0.24,7.58c3.3-3.21,7.33-5.47,10.88-8.37
			C53.03,25.17,47.44,25.28,44.98,28.95z M18.24,53.99c0.52,4.67,0.968,9.093,1.323,13.76c4.4,1.37,7.708,6.44,5.968,10.94
			c-0.456,2.111-2.613,3.872-4.124,5.013c0.047,0.734,0.141,1.422,0.254,2.347c8.99,0.36,17.79,2.46,26.33,5.15
			c0.01-10,0.02-19.99,0-29.98C38.56,57.18,28.5,54.6,18.24,53.99z M52.03,61.21c-0.07,9.99-0.02,19.99-0.02,29.98
			c8.55-2.62,17.33-4.79,26.31-5.14c0.039-0.863,0.124-1.581,0.18-2.24c-1.578-1.313-3.567-2.927-4.04-5.14
			c-1.72-4.5,1.31-9.33,5.71-10.68c0.59-4.66,1.07-9.33,1.59-14C71.51,54.6,61.45,57.18,52.03,61.21z M16.01,71.86
			c-0.01,2.76-0.01,5.52,0,8.28c2.64,0.14,6.14-0.86,6-4.14C22.17,72.71,18.66,71.7,16.01,71.86z M77.99,75.98
			c-0.18,3.29,3.36,4.32,6,4.16c0.01-2.76,0.01-5.52,0-8.28C81.35,71.7,77.83,72.7,77.99,75.98z"/>
	</g>
	<path d="M41.34,46.51c2.16-1.64,5.54,0.88,4.46,3.39c-0.43,1.87-2.97,2.71-4.47,1.56C39.59,50.39,39.62,47.58,41.34,46.51z"/>
</g>
<path d="M55.314,46.351c2.16-1.64,5.54,0.88,4.46,3.39c-0.43,1.87-2.97,2.71-4.47,1.56C53.564,50.231,53.594,47.421,55.314,46.351z"
	/>
</svg>
